<?xml version="1.0" encoding="UTF-8"?>
<svg width="378px" height="266px" viewBox="0 0 378 266" version="1.1" xmlns="http://www.w3.org/2000/svg" xmlns:xlink="http://www.w3.org/1999/xlink">
    <title>BiPartingInDark</title>
    <g id="BiPartingInDark" stroke="none" stroke-width="1" fill="none" fill-rule="evenodd">
        <polyline id="Path" stroke="#1B87B0" stroke-width="10" points="118.871863 218 99 218 99 47 278 47 278 218 259.054469 218"></polyline>
        <g id="Group" transform="translate(231.500000, 203.500000) rotate(90.000000) translate(-231.500000, -203.500000) translate(231.000000, 168.000000)" stroke="#1B87B0" stroke-linecap="square" stroke-width="9">
            <line x1="0.5" y1="0.5" x2="0.5" y2="70.5" id="Line"></line>
        </g>
        <g id="Group" transform="translate(144.500000, 203.500000) rotate(90.000000) translate(-144.500000, -203.500000) translate(144.000000, 168.000000)" stroke="#1B87B0" stroke-linecap="square" stroke-width="9">
            <line x1="0.5" y1="0.5" x2="0.5" y2="70.5" id="Line"></line>
        </g>
        <polygon id="Triangle" fill="#FFFFFF" transform="translate(231.500000, 242.500000) rotate(90.000000) translate(-231.500000, -242.500000) " points="231.5 225 249 260 214 260"></polygon>
        <polygon id="Triangle" fill="#FFFFFF" transform="translate(144.500000, 242.500000) scale(-1, 1) rotate(90.000000) translate(-144.500000, -242.500000) " points="144.5 225 162 260 127 260"></polygon>
        <path d="M184.77832,88 C185.31543,88 186.405762,87.8925781 188.049316,87.6777344 C189.284668,87.5166016 190.208496,87.2587891 190.820801,86.9042969 C191.809082,86.3349609 192.587891,85.5615234 193.157227,84.5839844 C193.726562,83.6064453 194.01123,82.5053711 194.01123,81.2807617 C194.01123,79.7768555 193.611084,78.5280762 192.810791,77.5344238 C192.010498,76.5407715 190.761719,75.8398438 189.064453,75.4316406 C190.181641,75.0449219 191.030273,74.5185547 191.610352,73.8525391 C192.480469,72.8535156 192.915527,71.6557617 192.915527,70.2592773 C192.915527,68.5942383 192.305908,67.1977539 191.08667,66.0698242 C189.867432,64.9418945 188.119141,64.3779297 185.841797,64.3779297 L185.841797,64.3779297 L172.177734,64.3779297 L172.177734,88 L184.77832,88 Z M182.71582,73.6430664 L179.541504,73.6430664 L179.541504,69.1635742 L182.76416,69.1635742 C183.870605,69.1635742 184.646729,69.3569336 185.092529,69.7436523 C185.53833,70.1303711 185.76123,70.6674805 185.76123,71.3549805 C185.76123,72.0961914 185.53833,72.6628418 185.092529,73.0549316 C184.646729,73.4470215 183.854492,73.6430664 182.71582,73.6430664 L182.71582,73.6430664 Z M183.263672,82.9243164 L179.541504,82.9243164 L179.541504,78.1386719 L183.247559,78.1386719 C184.525879,78.1386719 185.420166,78.3508301 185.93042,78.7751465 C186.440674,79.1994629 186.695801,79.7607422 186.695801,80.4589844 C186.695801,81.2109375 186.437988,81.8098145 185.922363,82.2556152 C185.406738,82.701416 184.520508,82.9243164 183.263672,82.9243164 L183.263672,82.9243164 Z M205.435547,88 L205.435547,64.3779297 L198.120117,64.3779297 L198.120117,88 L205.435547,88 Z M115.305908,125 L115.305908,116.234375 L119.302002,116.234375 C122.245361,116.234375 124.434082,115.562988 125.868164,114.220215 C127.302246,112.877441 128.019287,111.013672 128.019287,108.628906 C128.019287,106.308594 127.361328,104.52002 126.04541,103.263184 C124.729492,102.006348 122.750244,101.37793 120.107666,101.37793 L120.107666,101.37793 L107.974365,101.37793 L107.974365,125 L115.305908,125 Z M117.094482,111.44873 L115.305908,111.44873 L115.305908,106.179688 L117.384521,106.179688 C118.748779,106.179688 119.677979,106.4375 120.172119,106.953125 C120.66626,107.46875 120.91333,108.097168 120.91333,108.838379 C120.91333,109.601074 120.628662,110.226807 120.059326,110.715576 C119.48999,111.204346 118.501709,111.44873 117.094482,111.44873 L117.094482,111.44873 Z M136.913818,125 L138.057861,121.100586 L146.372314,121.100586 L147.532471,125 L155.170166,125 L146.291748,101.37793 L138.331787,101.37793 L129.453369,125 L136.913818,125 Z M144.841553,115.992676 L139.636963,115.992676 L142.231201,107.500977 L144.841553,115.992676 Z M164.934814,125 L164.934814,115.412598 L165.579346,115.412598 C166.245361,115.412598 166.841553,115.595215 167.36792,115.960449 C167.754639,116.239746 168.195068,116.84668 168.689209,117.78125 L168.689209,117.78125 L172.588623,125 L180.838623,125 L177.309814,118.151855 C177.137939,117.808105 176.796875,117.319336 176.286621,116.685547 C175.776367,116.051758 175.386963,115.638184 175.118408,115.444824 C174.720947,115.154785 174.087158,114.864746 173.217041,114.574707 C174.302002,114.327637 175.156006,114.016113 175.779053,113.640137 C176.756592,113.049316 177.524658,112.278564 178.083252,111.327881 C178.641846,110.377197 178.921143,109.246582 178.921143,107.936035 C178.921143,106.432129 178.555908,105.156494 177.825439,104.109131 C177.094971,103.061768 176.133545,102.344727 174.941162,101.958008 C173.748779,101.571289 172.024658,101.37793 169.768799,101.37793 L169.768799,101.37793 L157.603271,101.37793 L157.603271,125 L164.934814,125 Z M168.012451,110.949219 L164.934814,110.949219 L164.934814,106.147461 L168.141357,106.147461 C169.473389,106.147461 170.381104,106.351562 170.864502,106.759766 C171.3479,107.167969 171.5896,107.753418 171.5896,108.516113 C171.5896,109.031738 171.436523,109.488281 171.130371,109.885742 C170.824219,110.283203 170.429443,110.530273 169.946045,110.626953 C168.98999,110.841797 168.345459,110.949219 168.012451,110.949219 L168.012451,110.949219 Z M196.259033,125 L196.259033,107.210938 L203.703369,107.210938 L203.703369,101.37793 L181.515381,101.37793 L181.515381,107.210938 L188.959717,107.210938 L188.959717,125 L196.259033,125 Z M214.612061,125 L214.612061,101.37793 L207.296631,101.37793 L207.296631,125 L214.612061,125 Z M226.761475,125 L226.761475,112.028809 L235.607666,125 L242.488037,125 L242.488037,101.37793 L235.607666,101.37793 L235.607666,114.445801 L226.713135,101.37793 L219.897217,101.37793 L219.897217,125 L226.761475,125 Z M258.859131,125.402832 C261.136475,125.402832 263.10498,125.136963 264.764648,124.605225 C266.424316,124.073486 268.33374,123.071777 270.49292,121.600098 L270.49292,121.600098 L270.49292,111.529297 L259.213623,111.529297 L259.213623,116.443848 L264.095947,116.443848 L264.095947,118.66748 C263.139893,119.236816 262.29126,119.639648 261.550049,119.875977 C260.808838,120.112305 260.030029,120.230469 259.213623,120.230469 C257.494873,120.230469 256.154785,119.682617 255.193359,118.586914 C254.231934,117.491211 253.751221,115.665039 253.751221,113.108398 C253.751221,110.702148 254.226562,108.943115 255.177246,107.831299 C256.12793,106.719482 257.403564,106.163574 259.00415,106.163574 C260.078369,106.163574 260.961914,106.399902 261.654785,106.872559 C262.347656,107.345215 262.839111,108.027344 263.12915,108.918945 L263.12915,108.918945 L270.170654,107.662109 C269.740967,106.136719 269.099121,104.877197 268.245117,103.883545 C267.391113,102.889893 266.316895,102.156738 265.022461,101.684082 C263.728027,101.211426 261.775635,100.975098 259.165283,100.975098 C256.458252,100.975098 254.304443,101.356445 252.703857,102.119141 C250.6521,103.107422 249.094482,104.554932 248.031006,106.46167 C246.967529,108.368408 246.435791,110.61084 246.435791,113.188965 C246.435791,115.638184 246.921875,117.808105 247.894043,119.69873 C248.866211,121.589355 250.23584,123.012695 252.00293,123.96875 C253.77002,124.924805 256.05542,125.402832 258.859131,125.402832 Z M178.856689,162 L178.856689,138.37793 L171.54126,138.37793 L171.54126,162 L178.856689,162 Z M191.006104,162 L191.006104,149.028809 L199.852295,162 L206.732666,162 L206.732666,138.37793 L199.852295,138.37793 L199.852295,151.445801 L190.957764,138.37793 L184.141846,138.37793 L184.141846,162 L191.006104,162 Z" id="BIPARTINGIN" fill="#FFFFFF" fill-rule="nonzero"></path>
    </g>
</svg>