<?xml version="1.0" encoding="UTF-8"?>
<svg width="378px" height="266px" viewBox="0 0 378 266" version="1.1" xmlns="http://www.w3.org/2000/svg" xmlns:xlink="http://www.w3.org/1999/xlink">
    <title>LHOutSwingDark</title>
    <defs>
        <filter color-interpolation-filters="auto" id="filter-1">
            <feColorMatrix in="SourceGraphic" type="matrix" values="0 0 0 0 1.000000 0 0 0 0 1.000000 0 0 0 0 1.000000 0 0 0 1.000000 0"></feColorMatrix>
        </filter>
    </defs>
    <g id="LHOutSwingDark" stroke="none" stroke-width="1" fill="none" fill-rule="evenodd">
        <g filter="url(#filter-1)" id="key-6299">
            <g transform="translate(240.000000, 194.000000)">
                <path d="M22.6525003,2.34410162 C19.5280563,-0.781367205 14.4433348,-0.781367205 11.3183353,2.34410162 C8.97194673,4.69084252 8.3222246,8.21414879 9.64389108,11.2273786 L0.416947956,20.4557072 C0.322225747,20.5504437 0.265003533,20.6760181 0.25555909,20.8090936 L0.00139245933,24.4049107 C-0.00999642793,24.5654904 0.0488924525,24.7232918 0.162781325,24.8371978 C0.267225755,24.9419357 0.408614623,25 0.555559047,25 C0.568614601,25 0.581670154,24.9994444 0.594725708,24.9986109 L4.19000297,24.7444061 C4.32333629,24.7349602 4.4491696,24.6777294 4.54361403,24.582993 L5.63472499,23.4914404 C5.71916942,23.4069833 5.77389163,23.298078 5.79139163,23.1800048 L6.11611381,20.9843977 L8.30694683,20.6596267 C8.54916902,20.623788 8.73916899,20.4337595 8.77500232,20.1912231 L9.09944672,18.0003389 L11.2947242,17.675568 C11.4127797,17.6580654 11.5219464,17.6030571 11.6063908,17.5188778 L13.7702794,15.3546643 C16.7838901,16.6765293 20.305834,16.0267096 22.6522226,13.6799687 C24.166389,12.1661305 25,10.1530507 25,8.01217405 C25,5.87101954 24.166389,3.8579398 22.6525003,2.34410162 Z M20.5191673,7.19399577 C19.7691674,7.94410828 18.5533343,7.94410828 17.8033344,7.19399577 C17.0533345,6.44388325 17.0533345,5.22786751 17.8033344,4.477755 C18.5533343,3.72764248 19.7691674,3.72764248 20.5191673,4.477755 C21.2691672,5.22786751 21.2691672,6.44388325 20.5191673,7.19399577 Z" id="Shape" fill="#000000" fill-rule="nonzero"></path>
            </g>
        </g>
        <polyline id="Path" stroke="#1B87B0" stroke-width="10" points="161.497211 149 99 149 99 45 278 45 278 149 227.143952 149"></polyline>
        <g id="Group" transform="translate(194.500000, 182.250000) scale(1, -1) translate(-194.500000, -182.250000) translate(157.000000, 145.000000)" stroke="#1B87B0" stroke-width="9">
            <line x1="74.5" y1="0.5" x2="74.5" y2="70.5" id="Line" stroke-linecap="square"></line>
            <path d="M74,0.5 C33.1309285,0.5 0,33.6309285 0,74.5" id="Oval"></path>
        </g>
        <polygon id="Triangle" fill="#FFFFFF" transform="translate(194.500000, 162.500000) scale(1, -1) translate(-194.500000, -162.500000) " points="194.5 145 212 180 177 180"></polygon>
        <path d="M187.6,90 L187.6,83.36 L178.2,83.36 L178.2,59.84 L170.36,59.84 L170.36,90 L187.6,90 Z M199.48,90 L199.48,77.56 L210.8,77.56 L210.8,90 L218.64,90 L218.64,59.84 L210.8,59.84 L210.8,71.48 L199.48,71.48 L199.48,59.84 L191.64,59.84 L191.64,90 L199.48,90 Z M167.5,127.84 C169.926667,127.84 172.166667,127.433333 174.22,126.62 C176.273333,125.806667 178.04,124.68 179.52,123.24 C181,121.8 182.153333,120.113333 182.98,118.18 C183.806667,116.246667 184.22,114.16 184.22,111.92 C184.22,109.68 183.806667,107.593333 182.98,105.66 C182.153333,103.726667 181,102.04 179.52,100.6 C178.04,99.16 176.273333,98.0333333 174.22,97.22 C172.166667,96.4066667 169.926667,96 167.5,96 C165.046667,96 162.8,96.4066667 160.76,97.22 C158.72,98.0333333 156.966667,99.16 155.5,100.6 C154.033333,102.04 152.886667,103.726667 152.06,105.66 C151.233333,107.593333 150.82,109.68 150.82,111.92 C150.82,114.16 151.233333,116.246667 152.06,118.18 C152.886667,120.113333 154.033333,121.8 155.5,123.24 C156.966667,124.68 158.72,125.806667 160.76,126.62 C162.8,127.433333 165.046667,127.84 167.5,127.84 Z M167.5,120.24 C166.353333,120.24 165.266667,120.033333 164.24,119.62 C163.213333,119.206667 162.313333,118.626667 161.54,117.88 C160.766667,117.133333 160.153333,116.253333 159.7,115.24 C159.246667,114.226667 159.02,113.12 159.02,111.92 C159.02,110.72 159.246667,109.613333 159.7,108.6 C160.153333,107.586667 160.766667,106.706667 161.54,105.96 C162.313333,105.213333 163.213333,104.633333 164.24,104.22 C165.266667,103.806667 166.353333,103.6 167.5,103.6 C168.646667,103.6 169.733333,103.806667 170.76,104.22 C171.786667,104.633333 172.693333,105.213333 173.48,105.96 C174.266667,106.706667 174.886667,107.586667 175.34,108.6 C175.793333,109.613333 176.02,110.72 176.02,111.92 C176.02,113.12 175.793333,114.226667 175.34,115.24 C174.886667,116.253333 174.266667,117.133333 173.48,117.88 C172.693333,118.626667 171.786667,119.206667 170.76,119.62 C169.733333,120.033333 168.646667,120.24 167.5,120.24 Z M202.34,127.84 C206.793333,127.84 210.093333,126.76 212.24,124.6 C214.386667,122.44 215.46,119.013333 215.46,114.32 L215.46,114.32 L215.46,96.84 L207.66,96.84 L207.66,113.24 C207.66,114.12 207.626667,115.02 207.56,115.94 C207.493333,116.86 207.286667,117.693333 206.94,118.44 C206.593333,119.186667 206.066667,119.793333 205.36,120.26 C204.653333,120.726667 203.646667,120.96 202.34,120.96 C201.033333,120.96 200.02,120.726667 199.3,120.26 C198.58,119.793333 198.053333,119.186667 197.72,118.44 C197.386667,117.693333 197.186667,116.86 197.12,115.94 C197.053333,115.02 197.02,114.12 197.02,113.24 L197.02,113.24 L197.02,96.84 L189.18,96.84 L189.18,114.32 C189.18,119.013333 190.26,122.44 192.42,124.6 C194.58,126.76 197.886667,127.84 202.34,127.84 Z M233.22,127 L233.22,103.48 L239.66,103.48 L239.66,96.84 L218.94,96.84 L218.94,103.48 L225.38,103.48 L225.38,127 L233.22,127 Z" id="LHOUT" fill="#FFFFFF" fill-rule="nonzero"></path>
    </g>
</svg>