<?xml version="1.0" encoding="UTF-8"?>
<svg width="378px" height="266px" viewBox="0 0 378 266" version="1.1" xmlns="http://www.w3.org/2000/svg" xmlns:xlink="http://www.w3.org/1999/xlink">
    <title>LHSlidingOutDark</title>
    <g id="LHSlidingOutDark" stroke="none" stroke-width="1" fill="none" fill-rule="evenodd">
        <polyline id="Path" stroke="#1B87B0" stroke-width="10" transform="translate(188.500000, 132.500000) scale(-1, 1) translate(-188.500000, -132.500000) " points="118.871863 218 99 218 99 47 278 47 278 218 198.17453 218"></polyline>
        <g id="Group" transform="translate(219.000000, 232.500000) scale(-1, 1) rotate(90.000000) translate(-219.000000, -232.500000) translate(218.500000, 181.500000)" stroke="#1B87B0" stroke-linecap="square" stroke-width="9">
            <line x1="0.5" y1="0.5" x2="0.5" y2="101.5" id="Line"></line>
        </g>
        <polygon id="Triangle" fill="#FFFFFF" transform="translate(215.500000, 200.500000) scale(-1, 1) rotate(90.000000) translate(-215.500000, -200.500000) " points="215.5 183 233 218 198 218"></polygon>
        <path d="M185.358398,88 L185.358398,82.1831055 L173.966309,82.1831055 L173.966309,64.3779297 L166.666992,64.3779297 L166.666992,88 L185.358398,88 Z M196.009277,88 L196.009277,78.4448242 L203.985352,78.4448242 L203.985352,88 L211.316895,88 L211.316895,64.3779297 L203.985352,64.3779297 L203.985352,72.644043 L196.009277,72.644043 L196.009277,64.3779297 L188.709961,64.3779297 L188.709961,88 L196.009277,88 Z M125.030273,125.402832 C127.318359,125.402832 129.214355,125.07251 130.718262,124.411865 C132.222168,123.751221 133.393066,122.781738 134.230957,121.503418 C135.068848,120.225098 135.487793,118.828613 135.487793,117.313965 C135.487793,116.024902 135.173584,114.859375 134.545166,113.817383 C133.916748,112.775391 132.912354,111.902588 131.531982,111.198975 C130.151611,110.495361 127.866211,109.799805 124.675781,109.112305 C123.386719,108.84375 122.570312,108.553711 122.226562,108.242188 C121.87207,107.941406 121.694824,107.603027 121.694824,107.227051 C121.694824,106.711426 121.909668,106.273682 122.339355,105.913818 C122.769043,105.553955 123.408203,105.374023 124.256836,105.374023 C125.288086,105.374023 126.096436,105.615723 126.681885,106.099121 C127.267334,106.58252 127.651367,107.355957 127.833984,108.419434 L127.833984,108.419434 L134.714355,108.016602 C134.413574,105.567383 133.470947,103.781494 131.886475,102.658936 C130.302002,101.536377 128.000488,100.975098 124.981934,100.975098 C122.521973,100.975098 120.585693,101.283936 119.173096,101.901611 C117.760498,102.519287 116.702393,103.36792 115.998779,104.44751 C115.295166,105.5271 114.943359,106.673828 114.943359,107.887695 C114.943359,109.735352 115.630859,111.255371 117.005859,112.447754 C118.370117,113.640137 120.652832,114.596191 123.854004,115.315918 C125.809082,115.745605 127.055176,116.202148 127.592285,116.685547 C128.129395,117.168945 128.397949,117.716797 128.397949,118.329102 C128.397949,118.973633 128.115967,119.540283 127.552002,120.029053 C126.988037,120.517822 126.185059,120.762207 125.143066,120.762207 C123.746582,120.762207 122.672363,120.28418 121.92041,119.328125 C121.458496,118.737305 121.152344,117.87793 121.001953,116.75 L121.001953,116.75 L114.057129,117.185059 C114.26123,119.569824 115.136719,121.535645 116.683594,123.08252 C118.230469,124.629395 121.012695,125.402832 125.030273,125.402832 Z M157.853027,125 L157.853027,119.183105 L146.460938,119.183105 L146.460938,101.37793 L139.161621,101.37793 L139.161621,125 L157.853027,125 Z M168.777832,125 L168.777832,101.37793 L161.462402,101.37793 L161.462402,125 L168.777832,125 Z M184.955566,125 C186.255371,125 187.705566,124.785156 189.306152,124.355469 C190.477051,124.043945 191.572754,123.418213 192.593262,122.478271 C193.61377,121.53833 194.411377,120.372803 194.986084,118.981689 C195.560791,117.590576 195.848145,115.632812 195.848145,113.108398 C195.848145,111.49707 195.654785,109.97168 195.268066,108.532227 C194.881348,107.092773 194.258301,105.830566 193.398926,104.745605 C192.539551,103.660645 191.451904,102.828125 190.135986,102.248047 C188.820068,101.667969 187.093262,101.37793 184.955566,101.37793 L184.955566,101.37793 L174.111328,101.37793 L174.111328,125 L184.955566,125 Z M183.199219,119.634277 L181.410645,119.634277 L181.410645,106.727539 L183.231445,106.727539 C185.12207,106.727539 186.475586,107.189453 187.291992,108.113281 C188.108398,109.037109 188.516602,110.750488 188.516602,113.253418 C188.516602,115.144043 188.333984,116.510986 187.96875,117.354248 C187.603516,118.19751 187.098633,118.78833 186.454102,119.126709 C185.80957,119.465088 184.724609,119.634277 183.199219,119.634277 L183.199219,119.634277 Z M207.288574,125 L207.288574,101.37793 L199.973145,101.37793 L199.973145,125 L207.288574,125 Z M219.437988,125 L219.437988,112.028809 L228.28418,125 L235.164551,125 L235.164551,101.37793 L228.28418,101.37793 L228.28418,114.445801 L219.389648,101.37793 L212.57373,101.37793 L212.57373,125 L219.437988,125 Z M251.535645,125.402832 C253.812988,125.402832 255.781494,125.136963 257.441162,124.605225 C259.10083,124.073486 261.010254,123.071777 263.169434,121.600098 L263.169434,121.600098 L263.169434,111.529297 L251.890137,111.529297 L251.890137,116.443848 L256.772461,116.443848 L256.772461,118.66748 C255.816406,119.236816 254.967773,119.639648 254.226562,119.875977 C253.485352,120.112305 252.706543,120.230469 251.890137,120.230469 C250.171387,120.230469 248.831299,119.682617 247.869873,118.586914 C246.908447,117.491211 246.427734,115.665039 246.427734,113.108398 C246.427734,110.702148 246.903076,108.943115 247.85376,107.831299 C248.804443,106.719482 250.080078,106.163574 251.680664,106.163574 C252.754883,106.163574 253.638428,106.399902 254.331299,106.872559 C255.02417,107.345215 255.515625,108.027344 255.805664,108.918945 L255.805664,108.918945 L262.847168,107.662109 C262.41748,106.136719 261.775635,104.877197 260.921631,103.883545 C260.067627,102.889893 258.993408,102.156738 257.698975,101.684082 C256.404541,101.211426 254.452148,100.975098 251.841797,100.975098 C249.134766,100.975098 246.980957,101.356445 245.380371,102.119141 C243.328613,103.107422 241.770996,104.554932 240.70752,106.46167 C239.644043,108.368408 239.112305,110.61084 239.112305,113.188965 C239.112305,115.638184 239.598389,117.808105 240.570557,119.69873 C241.542725,121.589355 242.912354,123.012695 244.679443,123.96875 C246.446533,124.924805 248.731934,125.402832 251.535645,125.402832 Z M163.581299,162.402832 C166.202393,162.402832 168.391113,161.911377 170.147461,160.928467 C171.903809,159.945557 173.246582,158.570557 174.175781,156.803467 C175.10498,155.036377 175.56958,152.772461 175.56958,150.011719 C175.56958,146.208984 174.506104,143.252197 172.37915,141.141357 C170.252197,139.030518 167.2229,137.975098 163.29126,137.975098 C159.456299,137.975098 156.4646,139.049316 154.316162,141.197754 C152.167725,143.346191 151.093506,146.348633 151.093506,150.205078 C151.093506,152.96582 151.635986,155.264648 152.720947,157.101562 C153.805908,158.938477 155.221191,160.28125 156.966797,161.129883 C158.712402,161.978516 160.917236,162.402832 163.581299,162.402832 Z M163.3396,156.94043 C161.814209,156.94043 160.608398,156.419434 159.722168,155.377441 C158.835938,154.335449 158.392822,152.62207 158.392822,150.237305 C158.392822,147.831055 158.838623,146.106934 159.730225,145.064941 C160.621826,144.022949 161.803467,143.501953 163.275146,143.501953 C164.811279,143.501953 166.027832,144.014893 166.924805,145.040771 C167.821777,146.06665 168.270264,147.691406 168.270264,149.915039 C168.270264,152.557617 167.840576,154.38916 166.981201,155.409668 C166.121826,156.430176 164.907959,156.94043 163.3396,156.94043 Z M191.425049,162.418945 C193.412354,162.418945 195.11499,162.155762 196.532959,161.629395 C197.553467,161.253418 198.52832,160.60083 199.45752,159.671631 C200.386719,158.742432 201.068848,157.657471 201.503906,156.416748 C201.938965,155.176025 202.156494,153.857422 202.156494,152.460938 L202.156494,152.460938 L202.156494,138.37793 L194.873291,138.37793 L194.873291,152.799316 C194.873291,154.109863 194.516113,155.122314 193.801758,155.83667 C193.087402,156.551025 192.101807,156.908203 190.844971,156.908203 C189.577393,156.908203 188.586426,156.545654 187.87207,155.820557 C187.157715,155.095459 186.800537,154.088379 186.800537,152.799316 L186.800537,152.799316 L186.800537,138.37793 L179.517334,138.37793 L179.517334,152.460938 C179.517334,153.621094 179.74292,154.953125 180.194092,156.457031 C180.473389,157.391602 180.991699,158.299316 181.749023,159.180176 C182.506348,160.061035 183.341553,160.740479 184.254639,161.218506 C185.167725,161.696533 186.303711,162.016113 187.662598,162.177246 C189.021484,162.338379 190.275635,162.418945 191.425049,162.418945 Z M220.074463,162 L220.074463,144.210938 L227.518799,144.210938 L227.518799,138.37793 L205.330811,138.37793 L205.330811,144.210938 L212.775146,144.210938 L212.775146,162 L220.074463,162 Z" id="LHSLIDINGOUT" fill="#FFFFFF" fill-rule="nonzero"></path>
    </g>
</svg>