<?xml version="1.0" encoding="UTF-8"?>
<svg width="378px" height="266px" viewBox="0 0 378 266" version="1.1" xmlns="http://www.w3.org/2000/svg" xmlns:xlink="http://www.w3.org/1999/xlink">
    <title>RHInSwing</title>
    <defs>
        <filter color-interpolation-filters="auto" id="filter-1">
            <feColorMatrix in="SourceGraphic" type="matrix" values="0 0 0 0 0.066667 0 0 0 0 0.286275 0 0 0 0 0.372549 0 0 0 1.000000 0"></feColorMatrix>
        </filter>
    </defs>
    <g id="RHInSwing" stroke="none" stroke-width="1" fill="none" fill-rule="evenodd">
        <g filter="url(#filter-1)" id="key-6299">
            <g transform="translate(159.500000, 244.500000) scale(-1, -1) translate(-159.500000, -244.500000) translate(147.000000, 232.000000)">
                <path d="M22.6525003,2.34410162 C19.5280563,-0.781367205 14.4433348,-0.781367205 11.3183353,2.34410162 C8.97194673,4.69084252 8.3222246,8.21414879 9.64389108,11.2273786 L0.416947956,20.4557072 C0.322225747,20.5504437 0.265003533,20.6760181 0.25555909,20.8090936 L0.00139245933,24.4049107 C-0.00999642793,24.5654904 0.0488924525,24.7232918 0.162781325,24.8371978 C0.267225755,24.9419357 0.408614623,25 0.555559047,25 C0.568614601,25 0.581670154,24.9994444 0.594725708,24.9986109 L4.19000297,24.7444061 C4.32333629,24.7349602 4.4491696,24.6777294 4.54361403,24.582993 L5.63472499,23.4914404 C5.71916942,23.4069833 5.77389163,23.298078 5.79139163,23.1800048 L6.11611381,20.9843977 L8.30694683,20.6596267 C8.54916902,20.623788 8.73916899,20.4337595 8.77500232,20.1912231 L9.09944672,18.0003389 L11.2947242,17.675568 C11.4127797,17.6580654 11.5219464,17.6030571 11.6063908,17.5188778 L13.7702794,15.3546643 C16.7838901,16.6765293 20.305834,16.0267096 22.6522226,13.6799687 C24.166389,12.1661305 25,10.1530507 25,8.01217405 C25,5.87101954 24.166389,3.8579398 22.6525003,2.34410162 Z M20.5191673,7.19399577 C19.7691674,7.94410828 18.5533343,7.94410828 17.8033344,7.19399577 C17.0533345,6.44388325 17.0533345,5.22786751 17.8033344,4.477755 C18.5533343,3.72764248 19.7691674,3.72764248 20.5191673,4.477755 C21.2691672,5.22786751 21.2691672,6.44388325 20.5191673,7.19399577 Z" id="Shape" fill="#000000" fill-rule="nonzero"></path>
            </g>
        </g>
        <polyline id="Path" stroke="#1B87B0" stroke-width="10" points="161.497211 218 99 218 99 47 278 47 278 218 227.143952 218"></polyline>
        <g id="Group" transform="translate(157.000000, 144.000000)" stroke="#1B87B0" stroke-width="9">
            <line x1="74.5" y1="0.5" x2="74.5" y2="70.5" id="Line" stroke-linecap="square"></line>
            <path d="M74,0.5 C33.1309285,0.5 0,33.6309285 0,74.5" id="Oval"></path>
        </g>
        <path d="M169.16,87 L169.16,75.4 L176.64,87 L186.4,87 L176.92,74.64 C179.08,74.1333333 180.713333,73.1666667 181.82,71.74 C182.926667,70.3133333 183.48,68.4533333 183.48,66.16 C183.48,64.88 183.273333,63.68 182.86,62.56 C182.446667,61.44 181.833333,60.4533333 181.02,59.6 C180.206667,58.7466667 179.173333,58.0733333 177.92,57.58 C176.666667,57.0866667 175.2,56.84 173.52,56.84 L173.52,56.84 L161.32,56.84 L161.32,87 L169.16,87 Z M170.64,70.32 L169.16,70.32 L169.16,62.88 L170.64,62.88 C172.186667,62.88 173.373333,63.2 174.2,63.84 C175.026667,64.48 175.44,65.4 175.44,66.6 C175.44,67.8 175.026667,68.72 174.2,69.36 C173.373333,70 172.186667,70.32 170.64,70.32 L170.64,70.32 Z M197.52,87 L197.52,74.56 L208.84,74.56 L208.84,87 L216.68,87 L216.68,56.84 L208.84,56.84 L208.84,68.48 L197.52,68.48 L197.52,56.84 L189.68,56.84 L189.68,87 L197.52,87 Z M174.7,124 L174.7,93.84 L166.86,93.84 L166.86,124 L174.7,124 Z M188.86,124 L188.86,105.56 L203.34,124 L211.14,124 L211.14,93.84 L203.34,93.84 L203.34,112.28 L188.86,93.84 L181.02,93.84 L181.02,124 L188.86,124 Z" id="RHIN" fill="#11495F" fill-rule="nonzero"></path>
        <polygon id="Triangle" fill="#11495F" points="197.5 190 215 225 180 225"></polygon>
    </g>
</svg>