<?xml version="1.0" encoding="UTF-8"?>
<svg width="378px" height="266px" viewBox="0 0 378 266" version="1.1" xmlns="http://www.w3.org/2000/svg" xmlns:xlink="http://www.w3.org/1999/xlink">
    <title>RHOutSwing</title>
    <defs>
        <filter color-interpolation-filters="auto" id="filter-1">
            <feColorMatrix in="SourceGraphic" type="matrix" values="0 0 0 0 0.066667 0 0 0 0 0.286275 0 0 0 0 0.372549 0 0 0 1.000000 0"></feColorMatrix>
        </filter>
    </defs>
    <g id="RHOutSwing" stroke="none" stroke-width="1" fill="none" fill-rule="evenodd">
        <g filter="url(#filter-1)" id="key-6299">
            <g transform="translate(136.500000, 206.500000) scale(-1, 1) translate(-136.500000, -206.500000) translate(124.000000, 194.000000)">
                <path d="M22.6525003,2.34410162 C19.5280563,-0.781367205 14.4433348,-0.781367205 11.3183353,2.34410162 C8.97194673,4.69084252 8.3222246,8.21414879 9.64389108,11.2273786 L0.416947956,20.4557072 C0.322225747,20.5504437 0.265003533,20.6760181 0.25555909,20.8090936 L0.00139245933,24.4049107 C-0.00999642793,24.5654904 0.0488924525,24.7232918 0.162781325,24.8371978 C0.267225755,24.9419357 0.408614623,25 0.555559047,25 C0.568614601,25 0.581670154,24.9994444 0.594725708,24.9986109 L4.19000297,24.7444061 C4.32333629,24.7349602 4.4491696,24.6777294 4.54361403,24.582993 L5.63472499,23.4914404 C5.71916942,23.4069833 5.77389163,23.298078 5.79139163,23.1800048 L6.11611381,20.9843977 L8.30694683,20.6596267 C8.54916902,20.623788 8.73916899,20.4337595 8.77500232,20.1912231 L9.09944672,18.0003389 L11.2947242,17.675568 C11.4127797,17.6580654 11.5219464,17.6030571 11.6063908,17.5188778 L13.7702794,15.3546643 C16.7838901,16.6765293 20.305834,16.0267096 22.6522226,13.6799687 C24.166389,12.1661305 25,10.1530507 25,8.01217405 C25,5.87101954 24.166389,3.8579398 22.6525003,2.34410162 Z M20.5191673,7.19399577 C19.7691674,7.94410828 18.5533343,7.94410828 17.8033344,7.19399577 C17.0533345,6.44388325 17.0533345,5.22786751 17.8033344,4.477755 C18.5533343,3.72764248 19.7691674,3.72764248 20.5191673,4.477755 C21.2691672,5.22786751 21.2691672,6.44388325 20.5191673,7.19399577 Z" id="Shape" fill="#000000" fill-rule="nonzero"></path>
            </g>
        </g>
        <polyline id="Path" stroke="#1B87B0" stroke-width="10" points="161.497211 149 99 149 99 46 278 46 278 149 227.143952 149"></polyline>
        <g id="Group" transform="translate(194.500000, 182.250000) scale(-1, -1) translate(-194.500000, -182.250000) translate(157.000000, 145.000000)" stroke="#1B87B0" stroke-width="9">
            <line x1="74.5" y1="0.5" x2="74.5" y2="70.5" id="Line" stroke-linecap="square"></line>
            <path d="M74,0.5 C33.1309285,0.5 0,33.6309285 0,74.5" id="Oval"></path>
        </g>
        <polygon id="Triangle" fill="#11495F" transform="translate(194.500000, 162.500000) scale(1, -1) translate(-194.500000, -162.500000) " points="194.5 145 212 180 177 180"></polygon>
        <path d="M168.66,88 L168.66,76.4 L176.14,88 L185.9,88 L176.42,75.64 C178.58,75.1333333 180.213333,74.1666667 181.32,72.74 C182.426667,71.3133333 182.98,69.4533333 182.98,67.16 C182.98,65.88 182.773333,64.68 182.36,63.56 C181.946667,62.44 181.333333,61.4533333 180.52,60.6 C179.706667,59.7466667 178.673333,59.0733333 177.42,58.58 C176.166667,58.0866667 174.7,57.84 173.02,57.84 L173.02,57.84 L160.82,57.84 L160.82,88 L168.66,88 Z M170.14,71.32 L168.66,71.32 L168.66,63.88 L170.14,63.88 C171.686667,63.88 172.873333,64.2 173.7,64.84 C174.526667,65.48 174.94,66.4 174.94,67.6 C174.94,68.8 174.526667,69.72 173.7,70.36 C172.873333,71 171.686667,71.32 170.14,71.32 L170.14,71.32 Z M197.02,88 L197.02,75.56 L208.34,75.56 L208.34,88 L216.18,88 L216.18,57.84 L208.34,57.84 L208.34,69.48 L197.02,69.48 L197.02,57.84 L189.18,57.84 L189.18,88 L197.02,88 Z M161.5,125.84 C163.926667,125.84 166.166667,125.433333 168.22,124.62 C170.273333,123.806667 172.04,122.68 173.52,121.24 C175,119.8 176.153333,118.113333 176.98,116.18 C177.806667,114.246667 178.22,112.16 178.22,109.92 C178.22,107.68 177.806667,105.593333 176.98,103.66 C176.153333,101.726667 175,100.04 173.52,98.6 C172.04,97.16 170.273333,96.0333333 168.22,95.22 C166.166667,94.4066667 163.926667,94 161.5,94 C159.046667,94 156.8,94.4066667 154.76,95.22 C152.72,96.0333333 150.966667,97.16 149.5,98.6 C148.033333,100.04 146.886667,101.726667 146.06,103.66 C145.233333,105.593333 144.82,107.68 144.82,109.92 C144.82,112.16 145.233333,114.246667 146.06,116.18 C146.886667,118.113333 148.033333,119.8 149.5,121.24 C150.966667,122.68 152.72,123.806667 154.76,124.62 C156.8,125.433333 159.046667,125.84 161.5,125.84 Z M161.5,118.24 C160.353333,118.24 159.266667,118.033333 158.24,117.62 C157.213333,117.206667 156.313333,116.626667 155.54,115.88 C154.766667,115.133333 154.153333,114.253333 153.7,113.24 C153.246667,112.226667 153.02,111.12 153.02,109.92 C153.02,108.72 153.246667,107.613333 153.7,106.6 C154.153333,105.586667 154.766667,104.706667 155.54,103.96 C156.313333,103.213333 157.213333,102.633333 158.24,102.22 C159.266667,101.806667 160.353333,101.6 161.5,101.6 C162.646667,101.6 163.733333,101.806667 164.76,102.22 C165.786667,102.633333 166.693333,103.213333 167.48,103.96 C168.266667,104.706667 168.886667,105.586667 169.34,106.6 C169.793333,107.613333 170.02,108.72 170.02,109.92 C170.02,111.12 169.793333,112.226667 169.34,113.24 C168.886667,114.253333 168.266667,115.133333 167.48,115.88 C166.693333,116.626667 165.786667,117.206667 164.76,117.62 C163.733333,118.033333 162.646667,118.24 161.5,118.24 Z M196.34,125.84 C200.793333,125.84 204.093333,124.76 206.24,122.6 C208.386667,120.44 209.46,117.013333 209.46,112.32 L209.46,112.32 L209.46,94.84 L201.66,94.84 L201.66,111.24 C201.66,112.12 201.626667,113.02 201.56,113.94 C201.493333,114.86 201.286667,115.693333 200.94,116.44 C200.593333,117.186667 200.066667,117.793333 199.36,118.26 C198.653333,118.726667 197.646667,118.96 196.34,118.96 C195.033333,118.96 194.02,118.726667 193.3,118.26 C192.58,117.793333 192.053333,117.186667 191.72,116.44 C191.386667,115.693333 191.186667,114.86 191.12,113.94 C191.053333,113.02 191.02,112.12 191.02,111.24 L191.02,111.24 L191.02,94.84 L183.18,94.84 L183.18,112.32 C183.18,117.013333 184.26,120.44 186.42,122.6 C188.58,124.76 191.886667,125.84 196.34,125.84 Z M227.22,125 L227.22,101.48 L233.66,101.48 L233.66,94.84 L212.94,94.84 L212.94,101.48 L219.38,101.48 L219.38,125 L227.22,125 Z" id="RHOUT" fill="#11495F" fill-rule="nonzero"></path>
    </g>
</svg>