<?xml version="1.0" encoding="UTF-8"?>
<svg width="378px" height="266px" viewBox="0 0 378 266" version="1.1" xmlns="http://www.w3.org/2000/svg" xmlns:xlink="http://www.w3.org/1999/xlink">
    <title>RHSlidingIn</title>
    <g id="RHSlidingIn" stroke="none" stroke-width="1" fill="none" fill-rule="evenodd">
        <polyline id="Path" stroke="#1B87B0" stroke-width="10" points="118.871863 218 99 218 99 47 278 47 278 218 198.17453 218"></polyline>
        <g id="Group" transform="translate(161.500000, 204.500000) rotate(90.000000) translate(-161.500000, -204.500000) translate(161.000000, 155.000000)" stroke="#1B87B0" stroke-linecap="square" stroke-width="9">
            <line x1="0.5" y1="0.5" x2="0.5" y2="98.5" id="Line"></line>
        </g>
        <polygon id="Triangle" fill="#11495F" transform="translate(164.500000, 239.500000) rotate(90.000000) translate(-164.500000, -239.500000) " points="164.5 222 182 257 147 257"></polygon>
        <path d="M172.266357,88 L172.266357,78.4125977 L172.910889,78.4125977 C173.576904,78.4125977 174.173096,78.5952148 174.699463,78.9604492 C175.086182,79.2397461 175.526611,79.8466797 176.020752,80.78125 L176.020752,80.78125 L179.920166,88 L188.170166,88 L184.641357,81.1518555 C184.469482,80.8081055 184.128418,80.3193359 183.618164,79.6855469 C183.10791,79.0517578 182.718506,78.6381836 182.449951,78.4448242 C182.05249,78.1547852 181.418701,77.8647461 180.548584,77.574707 C181.633545,77.3276367 182.487549,77.0161133 183.110596,76.6401367 C184.088135,76.0493164 184.856201,75.2785645 185.414795,74.3278809 C185.973389,73.3771973 186.252686,72.246582 186.252686,70.9360352 C186.252686,69.4321289 185.887451,68.1564941 185.156982,67.1091309 C184.426514,66.0617676 183.465088,65.3447266 182.272705,64.9580078 C181.080322,64.5712891 179.356201,64.3779297 177.100342,64.3779297 L177.100342,64.3779297 L164.934814,64.3779297 L164.934814,88 L172.266357,88 Z M175.343994,73.9492188 L172.266357,73.9492188 L172.266357,69.1474609 L175.4729,69.1474609 C176.804932,69.1474609 177.712646,69.3515625 178.196045,69.7597656 C178.679443,70.1679688 178.921143,70.753418 178.921143,71.5161133 C178.921143,72.0317383 178.768066,72.4882812 178.461914,72.8857422 C178.155762,73.2832031 177.760986,73.5302734 177.277588,73.6269531 C176.321533,73.8417969 175.677002,73.9492188 175.343994,73.9492188 L175.343994,73.9492188 Z M197.838135,88 L197.838135,78.4448242 L205.814209,78.4448242 L205.814209,88 L213.145752,88 L213.145752,64.3779297 L205.814209,64.3779297 L205.814209,72.644043 L197.838135,72.644043 L197.838135,64.3779297 L190.538818,64.3779297 L190.538818,88 L197.838135,88 Z M125.030273,125.402832 C127.318359,125.402832 129.214355,125.07251 130.718262,124.411865 C132.222168,123.751221 133.393066,122.781738 134.230957,121.503418 C135.068848,120.225098 135.487793,118.828613 135.487793,117.313965 C135.487793,116.024902 135.173584,114.859375 134.545166,113.817383 C133.916748,112.775391 132.912354,111.902588 131.531982,111.198975 C130.151611,110.495361 127.866211,109.799805 124.675781,109.112305 C123.386719,108.84375 122.570312,108.553711 122.226562,108.242188 C121.87207,107.941406 121.694824,107.603027 121.694824,107.227051 C121.694824,106.711426 121.909668,106.273682 122.339355,105.913818 C122.769043,105.553955 123.408203,105.374023 124.256836,105.374023 C125.288086,105.374023 126.096436,105.615723 126.681885,106.099121 C127.267334,106.58252 127.651367,107.355957 127.833984,108.419434 L127.833984,108.419434 L134.714355,108.016602 C134.413574,105.567383 133.470947,103.781494 131.886475,102.658936 C130.302002,101.536377 128.000488,100.975098 124.981934,100.975098 C122.521973,100.975098 120.585693,101.283936 119.173096,101.901611 C117.760498,102.519287 116.702393,103.36792 115.998779,104.44751 C115.295166,105.5271 114.943359,106.673828 114.943359,107.887695 C114.943359,109.735352 115.630859,111.255371 117.005859,112.447754 C118.370117,113.640137 120.652832,114.596191 123.854004,115.315918 C125.809082,115.745605 127.055176,116.202148 127.592285,116.685547 C128.129395,117.168945 128.397949,117.716797 128.397949,118.329102 C128.397949,118.973633 128.115967,119.540283 127.552002,120.029053 C126.988037,120.517822 126.185059,120.762207 125.143066,120.762207 C123.746582,120.762207 122.672363,120.28418 121.92041,119.328125 C121.458496,118.737305 121.152344,117.87793 121.001953,116.75 L121.001953,116.75 L114.057129,117.185059 C114.26123,119.569824 115.136719,121.535645 116.683594,123.08252 C118.230469,124.629395 121.012695,125.402832 125.030273,125.402832 Z M157.853027,125 L157.853027,119.183105 L146.460938,119.183105 L146.460938,101.37793 L139.161621,101.37793 L139.161621,125 L157.853027,125 Z M168.777832,125 L168.777832,101.37793 L161.462402,101.37793 L161.462402,125 L168.777832,125 Z M184.955566,125 C186.255371,125 187.705566,124.785156 189.306152,124.355469 C190.477051,124.043945 191.572754,123.418213 192.593262,122.478271 C193.61377,121.53833 194.411377,120.372803 194.986084,118.981689 C195.560791,117.590576 195.848145,115.632812 195.848145,113.108398 C195.848145,111.49707 195.654785,109.97168 195.268066,108.532227 C194.881348,107.092773 194.258301,105.830566 193.398926,104.745605 C192.539551,103.660645 191.451904,102.828125 190.135986,102.248047 C188.820068,101.667969 187.093262,101.37793 184.955566,101.37793 L184.955566,101.37793 L174.111328,101.37793 L174.111328,125 L184.955566,125 Z M183.199219,119.634277 L181.410645,119.634277 L181.410645,106.727539 L183.231445,106.727539 C185.12207,106.727539 186.475586,107.189453 187.291992,108.113281 C188.108398,109.037109 188.516602,110.750488 188.516602,113.253418 C188.516602,115.144043 188.333984,116.510986 187.96875,117.354248 C187.603516,118.19751 187.098633,118.78833 186.454102,119.126709 C185.80957,119.465088 184.724609,119.634277 183.199219,119.634277 L183.199219,119.634277 Z M207.288574,125 L207.288574,101.37793 L199.973145,101.37793 L199.973145,125 L207.288574,125 Z M219.437988,125 L219.437988,112.028809 L228.28418,125 L235.164551,125 L235.164551,101.37793 L228.28418,101.37793 L228.28418,114.445801 L219.389648,101.37793 L212.57373,101.37793 L212.57373,125 L219.437988,125 Z M251.535645,125.402832 C253.812988,125.402832 255.781494,125.136963 257.441162,124.605225 C259.10083,124.073486 261.010254,123.071777 263.169434,121.600098 L263.169434,121.600098 L263.169434,111.529297 L251.890137,111.529297 L251.890137,116.443848 L256.772461,116.443848 L256.772461,118.66748 C255.816406,119.236816 254.967773,119.639648 254.226562,119.875977 C253.485352,120.112305 252.706543,120.230469 251.890137,120.230469 C250.171387,120.230469 248.831299,119.682617 247.869873,118.586914 C246.908447,117.491211 246.427734,115.665039 246.427734,113.108398 C246.427734,110.702148 246.903076,108.943115 247.85376,107.831299 C248.804443,106.719482 250.080078,106.163574 251.680664,106.163574 C252.754883,106.163574 253.638428,106.399902 254.331299,106.872559 C255.02417,107.345215 255.515625,108.027344 255.805664,108.918945 L255.805664,108.918945 L262.847168,107.662109 C262.41748,106.136719 261.775635,104.877197 260.921631,103.883545 C260.067627,102.889893 258.993408,102.156738 257.698975,101.684082 C256.404541,101.211426 254.452148,100.975098 251.841797,100.975098 C249.134766,100.975098 246.980957,101.356445 245.380371,102.119141 C243.328613,103.107422 241.770996,104.554932 240.70752,106.46167 C239.644043,108.368408 239.112305,110.61084 239.112305,113.188965 C239.112305,115.638184 239.598389,117.808105 240.570557,119.69873 C241.542725,121.589355 242.912354,123.012695 244.679443,123.96875 C246.446533,124.924805 248.731934,125.402832 251.535645,125.402832 Z M178.856689,162 L178.856689,138.37793 L171.54126,138.37793 L171.54126,162 L178.856689,162 Z M191.006104,162 L191.006104,149.028809 L199.852295,162 L206.732666,162 L206.732666,138.37793 L199.852295,138.37793 L199.852295,151.445801 L190.957764,138.37793 L184.141846,138.37793 L184.141846,162 L191.006104,162 Z" id="RHSLIDINGIN" fill="#11495F" fill-rule="nonzero"></path>
    </g>
</svg>