<?xml version="1.0" encoding="UTF-8"?>
<svg width="561px" height="189px" viewBox="0 0 561 189" version="1.1" xmlns="http://www.w3.org/2000/svg" xmlns:xlink="http://www.w3.org/1999/xlink">
    <title>New GPS Logo Print 2019-01-08</title>
    <defs>
        <filter x="-2.1%" y="-7.4%" width="104.3%" height="114.8%" filterUnits="objectBoundingBox" id="filter-1">
            <feOffset dx="2" dy="2" in="SourceAlpha" result="shadowOffsetOuter1"></feOffset>
            <feGaussianBlur stdDeviation="2" in="shadowOffsetOuter1" result="shadowBlurOuter1"></feGaussianBlur>
            <feColorMatrix values="0 0 0 0 0   0 0 0 0 0   0 0 0 0 0  0 0 0 0.5 0" type="matrix" in="shadowBlurOuter1" result="shadowMatrixOuter1"></feColorMatrix>
            <feMerge>
                <feMergeNode in="shadowMatrixOuter1"></feMergeNode>
                <feMergeNode in="SourceGraphic"></feMergeNode>
            </feMerge>
        </filter>
    </defs>
    <g id="New-GPS-Logo-Print-2019-01-08" stroke="none" stroke-width="1" fill="none" fill-rule="evenodd">
        <g id="GPS" filter="url(#filter-1)" transform="translate(-0.006379, -0.310000)" fill="#1B87B0">
            <path d="M181.095573,96.6383296 L88.0542421,96.6383296 C83.5009089,83.7729966 78.9462424,70.9009969 74.3929091,58.0356639 C75.1182424,56.9663306 75.8422424,55.895664 76.5675757,54.827664 C77.9822424,54.0169974 86.6889088,54.515664 89.1929088,54.515664 L121.483575,54.515664 C119.618241,49.9396641 117.882241,45.1276642 113.307575,43.2356643 C109.824908,41.7956643 104.563575,42.0969976 99.6462418,42.0969976 L75.2209091,42.0969976 C69.6702426,42.0969976 54.8795763,40.7729977 53.9009096,44.7876642 C53.390243,46.8863309 55.5875763,51.8876641 56.1782429,53.5849974 C58.6689095,60.7356638 60.7449095,67.9036637 63.4235761,74.8009968 C67.2462426,84.6503299 70.2795759,94.7383297 74.0835758,104.399663 C75.8475758,108.883663 76.9569091,114.519663 80.7062423,117.026329 C86.1889088,120.691662 102.666242,119.303662 111.960908,119.303662 L188.54624,119.303662 C193.134239,132.168995 197.723573,145.040995 202.311573,157.906328 C201.518239,159.010328 200.724906,160.114328 199.931573,161.219661 C199.255573,161.802328 192.256906,161.426328 190.720906,161.426328 L164.432907,161.426328 L61.0422428,161.426328 C59.3862428,161.150328 57.7302429,160.874328 56.0742429,160.598328 C52.4155763,159.582328 49.6395764,157.907661 47.0702431,155.835661 C40.1835767,150.284995 36.8209101,134.799662 33.2035768,125.512996 C23.6929104,101.11033 16.5569106,75.5343301 7.01824415,50.9983308 C1.93424428,37.9183311 -5.93908886,17.4343316 7.22624414,7.01299853 C10.7115774,4.2529986 14.846244,2.27033198 19.8515772,1.01033201 C24.8702437,-0.252334626 31.3835769,0.0783320328 37.5489101,0.0783320328 L65.803576,0.0783320328 L117.032908,0.0783320328 C126.595574,0.0783320328 137.366241,-0.636334616 144.044907,2.25166531 C153.67024,6.41433187 155.99424,16.8103316 159.879574,26.7796647 C167.743573,48.8903308 175.611573,71.0076636 183.475573,93.119663 C182.68224,94.291663 181.888906,95.4649963 181.095573,96.6383296" id="path26-path" transform="translate(101.155786, 80.772847) scale(1, -1) translate(-101.155786, -80.772847) "></path>
            <path d="M350.307569,0.0225389394 C353.803569,0.0225389394 357.348902,-0.145461056 360.450235,0.435872262 C371.435568,2.49853888 379.804901,7.0998721 382.908901,16.9945385 C385.628901,25.6665383 382.190235,35.1385381 379.700901,41.5238712 L379.700901,41.5238712 L375.456902,53.4252043 C374.54203,55.7714606 373.701572,58.2115395 372.885497,60.689675 L372.537097,61.7539006 C372.305632,62.4647208 372.075573,63.1779974 371.845754,63.8924297 L371.50106,64.9647823 C371.156255,66.0376764 370.810676,67.1117077 370.460386,68.1824863 L370.108381,69.252018 C366.510723,80.1112621 362.290426,90.4830642 353.308902,95.7545365 C348.467733,98.5952382 340.900309,98.8758087 333.054758,98.790024 L331.876146,98.7746828 C331.089421,98.7629893 330.30114,98.748729 329.513749,98.7340959 L328.333638,98.7121408 C326.56539,98.6796113 324.80785,98.650747 323.088903,98.6505365 C296.252904,98.6865365 269.407571,98.7212031 242.570238,98.7558698 C235.119572,119.727869 227.666239,140.706535 220.215572,161.679868 L220.215572,161.679868 L188.339573,161.473202 C185.784906,161.457202 176.95424,161.990535 175.50624,161.161202 C174.78224,160.091868 174.05824,159.023868 173.332907,157.953202 C191.959573,105.314536 210.592906,52.659871 229.219572,0.0225389394 L229.219572,0.0225389394 Z M329.453044,46.8410354 C329.066725,43.4294993 323.822933,43.1930725 318.909303,43.342637 L318.309636,43.3626905 C316.517705,43.4275006 314.7989,43.5290355 313.410378,43.5290355 L313.410378,43.5290355 L262.077046,43.5290355 C260.387712,48.3930354 258.697046,53.2583686 257.006379,58.1210352 L257.006379,58.1210352 L305.130378,58.1210352 C310.771711,58.1223685 321.482378,59.1050351 325.105044,56.9837019 C326.367711,56.2437019 329.690377,48.9517021 329.453044,46.8410354 Z" id="Combined-Shape"></path>
            <path d="M439.0009,112.052544 C439.622233,112.915211 440.243567,113.777878 440.8649,114.640544 C445.1729,120.463211 453.3449,119.297878 463.219566,119.296544 L546.842231,119.296544 C551.360897,132.164544 555.880897,145.033877 560.399564,157.901877 C559.64223,159.004543 558.880897,160.108543 558.123564,161.212543 C556.552897,162.112543 550.190231,161.52321 547.772897,161.52321 L521.590231,161.52321 L425.3409,161.52321 C423.167567,161.281877 420.9929,161.040543 418.819567,160.797877 C414.662234,159.75521 411.446234,158.020543 408.574234,155.72721 C401.852901,150.360544 400.572901,139.17521 397.190234,130.475211 C392.982235,118.160544 388.771568,105.843211 384.563568,93.5272116 C383.127568,88.3445451 383.136901,80.5032119 384.978235,75.8298787 C387.612901,69.1418789 392.956901,64.8845456 399.674234,62.2725457 C406.270234,59.7085458 415.984901,60.2018791 425.134234,60.2018791 L469.636899,60.2018791 C475.468899,60.2032124 491.143565,61.8405457 491.370232,56.7872125 C488.222232,52.3898793 487.647565,45.9538795 482.366232,43.6432128 C478.566232,41.9805462 472.970233,42.1938795 467.462233,42.1938795 L450.4889,42.1938795 L379.907568,42.1938795 C375.354235,29.3285465 370.799568,16.4592135 366.246235,3.59121385 C367.004902,2.48721387 367.763568,1.3832139 368.522235,0.280547262 C369.546235,-0.188786059 371.687568,0.0725472676 373.076902,0.0725472676 L386.116901,0.0725472676 L429.5849,0.0725472676 L486.504899,0.0725472676 C498.434232,0.0725472676 508.824898,-0.642119381 515.794231,4.31654716 C522.355565,8.98454704 524.500898,17.2272135 527.696898,25.32588 C530.386231,32.5338798 533.078231,39.7458796 535.767564,46.9565461 C537.424898,51.404546 539.080898,55.8565459 540.735564,60.3058791 C543.390231,67.0845456 547.164897,76.7898787 544.255564,85.9725451 C541.047564,96.0925449 532.304898,100.320545 520.866231,102.324545 C515.271565,103.304545 508.790232,102.531211 502.754232,102.531211 L473.258232,102.531211 L447.2809,102.531211 C443.838233,102.531211 439.079567,102.195211 438.3809,104.911211 C438.050233,106.192545 438.738233,107.127211 438.898233,108.016545 C438.9329,109.361878 438.967567,110.707211 439.0009,112.052544" id="path26-path" transform="translate(463.322899, 80.856347) scale(1, -1) translate(-463.322899, -80.856347) "></path>
        </g>
        <line x1="4.8316906e-13" y1="182" x2="545" y2="182" id="Line" stroke="#D3FF4A" stroke-width="5"></line>
    </g>
</svg>